<svg xmlns="http://www.w3.org/2000/svg" fill="none" viewBox="0 0 25 24"><path stroke="#ea580c" d="M15.451 10.98c.328-2.058-.355-4.403-1.858-6.44a1 1 0 0 1 1.32-1.45c4.291 2.577 7.016 7.532 6.013 11.97.93 1.303 1.297 2.626 1.387 3.62.048.537.021 1.028-.073 1.394-.025.095-.06.204-.111.313-.043.091-.137.27-.32.422a1.05 1.05 0 0 1-1.082.162 1.1 1.1 0 0 1-.552-.523c-.376-.732-.835-.918-1.252-.952-.49-.04-1.035.132-1.45.343q-.13.076-.248.139l-.003.002q-.051.03-.102.054c-2.407 1.256-5.53 1.297-8.574-.012a13.5 13.5 0 0 1-6.057-5.194 1 1 0 0 1 1.441-1.335c.595.439 1.236.824 1.916 1.143 2.124.995 4.18 1.137 5.83.651-2.565-2.22-4.72-4.825-6.395-6.95A11.5 11.5 0 0 1 4.2 6.842 1 1 0 0 1 5.732 5.59c.318.292.662.593 1.022.898-.126-.18-.224-.325-.29-.426a4 4 0 0 1-.118-.191V5.87a1 1 0 0 1-.057-.124v-.002a1.01 1.01 0 0 1 .057-.838c.072-.112.268-.313.393-.394a1.7 1.7 0 0 1 .49-.125 1 1 0 0 1 .707.298zm0 0a45 45 0 0 1-1.734-1.249 54.4 54.4 0 0 1-5.78-5.046zm1.768 9.002h-.002zm3.083-.403v-.002zm1.652-.046v-.002zm-1.073-4.285-.762-.19zm-.762-.19.506-.394-.012-.015-.001-.002-.502.408-.02-.005.494-.436-.01-.01.004.004zm-.029-.008.02.005z"/></svg>