<svg xmlns="http://www.w3.org/2000/svg" width="800" height="800" fill="#f59e0b" viewBox="0 0 512 512"><title>xml-document</title><path fill="#f59e0b" fill-rule="evenodd" d="M320 42.667H85.333v234.666H128v-192h174.293L384 167.04v110.293h42.667v-128zM158.014 320.235l-30.208 41.77-29.824-41.77H64.425l45.034 62.378-47.381 65.75h34.07l30.229-42.774 30.378 42.774h34.795l-47.083-65.024 46.55-63.104zm135.149 69.039c-2.176 6.677-4.672 15.317-7.51 25.856-2.816-10.667-5.312-19.286-7.402-25.856l-22.144-69.27h-42.774v128.128H240V344.41c2.944 11.05 5.525 19.904 7.68 26.602l24.96 77.12h24.768l25.685-79.296c2.646-8.085 5.014-16.213 7.04-24.426v103.722h27.776V320.004h-42.304zm93.866-69.04v128.129h83.904v-22.614h-55.04V320.235z"/></svg>